<svg xmlns="http://www.w3.org/2000/svg" viewBox="0 0 260 240" role="img" aria-labelledby="title desc">
  <title id="title">邀请花花</title><desc id="desc">送来一封邀请信的紫色花朵。</desc>
  <defs><linearGradient id="a" x1="0" y1="0" x2="1" y2="1"><stop stop-color="#7340DA"/><stop offset="1" stop-color="#A961EF"/></linearGradient><linearGradient id="b" x1="0" y1="0" x2="1" y2="1"><stop stop-color="#E2C1FF"/><stop offset="1" stop-color="#AE69ED"/></linearGradient><linearGradient id="l" x1="0" y1="0" x2="1" y2="1"><stop stop-color="#83C982"/><stop offset="1" stop-color="#42A16D"/></linearGradient><filter id="s" x="-30%" y="-30%" width="160%" height="180%"><feDropShadow dx="0" dy="9" stdDeviation="9" flood-color="#4B218C" flood-opacity=".17"/></filter></defs>
  <path d="M139 129c-2 25-1 51 1 80" fill="none" stroke="#51A978" stroke-width="9" stroke-linecap="round"/><path d="M137 178c-28-21-47-13-49 5 19 17 38 15 49-5Zm5 13c26-24 46-17 49 1-17 18-36 19-49-1Z" fill="url(#l)"/>
  <g filter="url(#s)"><path d="M138 109c-34 8-69-8-74-37-5-28 19-45 45-38 30 7 44 39 29 75Z" fill="url(#a)"/><path d="M140 110c4-32 30-57 59-51 26 5 33 31 17 53-18 24-52 27-76-2Z" fill="url(#b)"/><path d="M136 113c-30-13-64-2-73 25-8 25 11 45 37 44 30-1 50-33 36-69Z" fill="url(#b)"/><path d="M141 114c31-5 62 14 65 42 3 26-20 41-45 34-28-9-41-42-20-76Z" fill="url(#a)"/></g>
  <g fill="#FFE78A"><ellipse cx="139" cy="99" rx="9" ry="17"/><ellipse cx="152" cy="111" rx="17" ry="9"/><ellipse cx="140" cy="124" rx="9" ry="17"/><ellipse cx="127" cy="111" rx="17" ry="9"/><circle cx="139" cy="111" r="8" fill="#FFC43E"/></g><g fill="#26183E"><ellipse cx="159" cy="151" rx="4" ry="6"/><ellipse cx="183" cy="149" rx="4" ry="6"/></g><path d="M165 161c5 6 13 6 17-.6" fill="none" stroke="#26183E" stroke-width="5" stroke-linecap="round"/>
  <g transform="translate(43 141) rotate(-8)"><rect x="0" y="0" width="72" height="52" rx="10" fill="#F8F3FF" stroke="#8552DD" stroke-width="5"/><path d="m5 8 31 25L67 8" fill="none" stroke="#9B6BE9" stroke-width="5" stroke-linecap="round" stroke-linejoin="round"/><circle cx="64" cy="2" r="10" fill="#E86691"/><path d="m60 1 3 3 6-7" fill="none" stroke="#fff" stroke-width="3" stroke-linecap="round" stroke-linejoin="round"/></g>
  <path d="M31 107c-8 1-14 6-18 13m201-83c8 2 14 7 18 14" fill="none" stroke="#8D5BE5" stroke-width="5" stroke-linecap="round" opacity=".65"/>
</svg>
